<svg width="20" height="18" viewBox="0 0 20 18" fill="none" xmlns="http://www.w3.org/2000/svg">
<path d="M16.7372 5.59225C17.1301 5.46126 17.3425 5.03652 17.2115 4.64357C17.0805 4.25061 16.6558 4.03824 16.2628 4.16922C15.5622 4.40277 14.7002 4.90982 13.9497 5.40456C13.1823 5.91042 12.4637 6.44927 12.0315 6.79509C11.708 7.05384 11.6556 7.52581 11.9143 7.84926C12.1731 8.1727 12.6451 8.22515 12.9685 7.96639C13.3696 7.64554 14.051 7.13439 14.7753 6.65692C15.5165 6.16832 16.2378 5.75871 16.7372 5.59225Z" fill="#F2FEFF"/>
<path d="M17.2115 8.64357C17.3425 9.03652 17.1301 9.46126 16.7372 9.59225C16.2378 9.75871 15.5165 10.1683 14.7753 10.6569C14.051 11.1344 13.3696 11.6455 12.9685 11.9664C12.6451 12.2251 12.1731 12.1727 11.9143 11.8493C11.6556 11.5258 11.708 11.0538 12.0315 10.7951C12.4637 10.4493 13.1823 9.91042 13.9497 9.40456C14.7002 8.90982 15.5622 8.40277 16.2628 8.16922C16.6558 8.03824 17.0805 8.25061 17.2115 8.64357Z" fill="#F2FEFF"/>
<path fill-rule="evenodd" clip-rule="evenodd" d="M0 1.00082V12.4879C0 12.9965 0.38055 13.4252 0.883346 13.5017C1.95324 13.6645 3.76524 13.9941 5 14.5057C6.49481 15.1251 8.30043 16.4906 9.28098 17.2818C9.69084 17.6125 10.2898 17.5933 10.6787 17.2382C11.5502 16.4424 13.1093 15.1173 14.4444 14.5057C15.5827 13.9843 17.8405 13.6425 19.099 13.4837C19.6101 13.4193 20 12.9876 20 12.4725V0.981735C20 0.391539 19.4927 -0.0681734 18.9075 0.00834233C17.6223 0.176375 15.5271 0.509821 14.4444 1.00571C13.1093 1.61725 11.5502 2.94239 10.6787 3.73816C10.2898 4.09329 9.69083 4.11248 9.28097 3.78177C8.30043 2.99057 6.49481 1.6251 5 1.00571C3.84824 0.528472 2.19424 0.209604 1.10876 0.0367725C0.51916 -0.0571038 0 0.4038 0 1.00082ZM5.57419 13.12C4.31224 12.5971 2.61257 12.2626 1.5 12.0805V1.62466C2.48324 1.80243 3.63014 2.06177 4.42581 2.39146C5.6979 2.91856 7.3525 4.15311 8.33903 4.94913C8.61511 5.1719 8.92556 5.32871 9.25 5.42044V15.357C8.21564 14.5816 6.83091 13.6407 5.57419 13.12ZM9.93026 15.8807C9.9327 15.8827 9.93513 15.8846 9.93757 15.8865C9.93972 15.8846 9.94188 15.8827 9.94405 15.8807H9.93026ZM10.75 15.1884C11.6355 14.457 12.7596 13.6275 13.8198 13.142C14.5605 12.8027 15.5582 12.5604 16.4363 12.3871C17.1682 12.2427 17.9036 12.1303 18.5 12.0494V1.57899C17.9991 1.65225 17.4401 1.74418 16.8983 1.85412C16.096 2.01694 15.4445 2.19752 15.0691 2.36946C13.9716 2.87217 12.5669 4.04524 11.6902 4.84582C11.4123 5.09955 11.0907 5.28202 10.75 5.39221V15.1884Z" fill="#F2FEFF"/>
</svg>
