<svg width="22" height="22" viewBox="0 0 22 22" fill="none" xmlns="http://www.w3.org/2000/svg">
<g clip-path="url(#clip0_162_2916)">
<path d="M10.8563 21.7126C16.8521 21.7126 21.7126 16.8521 21.7126 10.8563C21.7126 4.86053 16.8521 0 10.8563 0C4.86053 0 0 4.86053 0 10.8563C0 16.8521 4.86053 21.7126 10.8563 21.7126Z" fill="#F0F0F0"/>
<path d="M10.8566 -0.000274658C6.18875 -0.000274658 2.20945 2.94585 0.675537 7.07994H21.0377C19.5037 2.94585 15.5244 -0.000274658 10.8566 -0.000274658Z" fill="#D80027"/>
<path d="M10.8566 21.7129C15.5244 21.7129 19.5037 18.7667 21.0376 14.6327H0.675537C2.20945 18.7667 6.18875 21.7129 10.8566 21.7129Z" fill="black"/>
<path d="M14.6323 9.67621H11.8002C11.8002 9.15485 11.3776 8.73218 10.8562 8.73218C10.3348 8.73218 9.91217 9.15485 9.91217 9.67621H7.08008C7.08008 10.1976 7.53422 10.6202 8.05557 10.6202H8.02411C8.02411 11.1416 8.44674 11.5643 8.96814 11.5643C8.96814 12.0857 9.39077 12.5083 9.91217 12.5083H11.8002C12.3216 12.5083 12.7443 12.0857 12.7443 11.5643C13.2657 11.5643 13.6883 11.1416 13.6883 10.6202H13.6569C14.1782 10.6202 14.6323 10.1976 14.6323 9.67621Z" fill="#FF9811"/>
</g>
<defs>
<clipPath id="clip0_162_2916">
<rect width="21.7126" height="21.7126" fill="white"/>
</clipPath>
</defs>
</svg>
