<svg width="22" height="22" viewBox="0 0 22 22" fill="none" xmlns="http://www.w3.org/2000/svg">
<g clip-path="url(#clip0_162_2914)">
<path d="M10.8563 21.7126C16.8521 21.7126 21.7126 16.8521 21.7126 10.8563C21.7126 4.86053 16.8521 0 10.8563 0C4.86053 0 0 4.86053 0 10.8563C0 16.8521 4.86053 21.7126 10.8563 21.7126Z" fill="#F0F0F0"/>
<path d="M2.48145 3.94724H19.231C18.6124 3.19811 17.8948 2.5338 17.0989 1.97339H4.61356C3.81762 2.53372 3.10013 3.19807 2.48145 3.94724Z" fill="#F0F0F0"/>
<path d="M0 10.8568C0 11.1896 0.015818 11.5186 0.0451215 11.8437H21.6675C21.6968 11.5186 21.7126 11.1896 21.7126 10.8568C21.7126 10.524 21.6968 10.195 21.6675 9.86987H0.0451215C0.015818 10.195 0 10.524 0 10.8568Z" fill="#F0F0F0"/>
<path d="M1.18422 15.791H20.5291C20.8488 15.1657 21.1095 14.5054 21.3041 13.8172H0.40918C0.603787 14.5054 0.864593 15.1657 1.18422 15.791Z" fill="#F0F0F0"/>
<path d="M4.61356 19.7386H17.0988C17.8948 19.1782 18.6123 18.5139 19.231 17.7648H2.48145C3.10013 18.5138 3.81762 19.1782 4.61356 19.7386Z" fill="#F0F0F0"/>
<path d="M0.408936 7.896H21.304C21.1093 7.20781 20.8486 6.54745 20.5289 5.92215H1.18402C0.864391 6.54745 0.603585 7.20781 0.408936 7.896Z" fill="#F0F0F0"/>
<path d="M5.19141 1.97391H17.0982C15.3324 0.730613 13.1793 6.10352e-05 10.8555 6.10352e-05C9.43952 6.10352e-05 6.95725 0.730613 5.19141 1.97391Z" fill="#D80027"/>
<path d="M10.3843 5.92145H20.5287C20.1677 5.21524 19.7317 4.55373 19.231 3.9476H10.3843V5.92145Z" fill="#D80027"/>
<path d="M10.3843 9.86881H21.6674C21.6064 9.19105 21.4836 8.53103 21.3038 7.89496H10.3843V9.86881Z" fill="#D80027"/>
<path d="M0.408364 13.8179H21.3033C21.4832 13.1819 21.606 12.5218 21.667 11.8441H0.0446777C0.105744 12.5218 0.228471 13.1819 0.408364 13.8179Z" fill="#D80027"/>
<path d="M2.48126 17.7653H19.2308C19.7314 17.1591 20.1675 16.4976 20.5285 15.7914H1.18359C1.54461 16.4977 1.98064 17.1592 2.48126 17.7653Z" fill="#D80027"/>
<path d="M10.8555 21.713C13.1793 21.713 15.3323 20.9824 17.0981 19.7391H4.61279C6.37864 20.9824 8.53166 21.713 10.8555 21.713Z" fill="#D80027"/>
<path d="M0.408809 7.8951C0.228917 8.53121 0.106233 9.19119 0.045166 9.86895H10.8563V-0.000396729C5.88703 -0.000396729 1.69765 3.33842 0.408809 7.8951Z" fill="#0052B4"/>
<path d="M6.46267 2.83215L7.16557 4.99557H9.44056L7.60016 6.33276L8.30302 8.4963L6.46267 7.15919L4.62223 8.4963L5.32526 6.33276L3.48486 4.99557H5.75972L6.46267 2.83215Z" fill="#F0F0F0"/>
</g>
<defs>
<clipPath id="clip0_162_2914">
<rect width="21.7126" height="21.7126" fill="white"/>
</clipPath>
</defs>
</svg>
