<svg width="361" height="361" viewBox="0 0 361 361" fill="none" xmlns="http://www.w3.org/2000/svg">
<path d="M200.878 29.8907L239.578 33.8617C239.761 33.8775 239.943 33.8228 240.087 33.7087C240.232 33.5947 240.327 33.4299 240.354 33.248L240.643 31.2084C240.668 31.0242 240.62 30.8372 240.509 30.6884C240.397 30.5396 240.231 30.441 240.047 30.4142L201.203 26.6237C201.111 26.6137 201.017 26.6222 200.928 26.6486C200.839 26.675 200.756 26.7189 200.683 26.7776C200.611 26.8364 200.551 26.9089 200.507 26.9909C200.463 27.0729 200.436 27.1628 200.427 27.2554L200.247 29.0604C200.229 29.1571 200.231 29.2564 200.254 29.352C200.276 29.4476 200.319 29.5374 200.378 29.6156C200.438 29.6938 200.513 29.7587 200.599 29.8061C200.685 29.8535 200.78 29.8823 200.878 29.8907ZM195.879 56.4603L238.928 61.2075C239.106 61.2286 239.286 61.1806 239.431 61.0732C239.575 60.9657 239.673 60.8071 239.704 60.6299L240.101 58.518C240.133 58.3316 240.09 58.1401 239.982 57.9849C239.874 57.8296 239.709 57.7229 239.523 57.6877L196.203 53.1752C196.111 53.1653 196.017 53.1737 195.928 53.2001C195.839 53.2266 195.756 53.2704 195.684 53.3292C195.611 53.3879 195.552 53.4604 195.508 53.5424C195.464 53.6244 195.436 53.7144 195.427 53.807L195.229 55.612C195.214 55.7107 195.218 55.8114 195.243 55.9081C195.268 56.0048 195.312 56.0956 195.373 56.1748C195.433 56.2541 195.509 56.3202 195.596 56.3693C195.683 56.4184 195.779 56.4493 195.879 56.4603ZM195.229 62.0919L223.946 65.1965C224.127 65.2128 224.307 65.1606 224.451 65.0502C224.594 64.9399 224.691 64.7795 224.722 64.6009L225.029 62.7959C225.061 62.6094 225.018 62.418 224.91 62.2627C224.802 62.1074 224.638 62.0008 224.452 61.9656L195.572 58.8429C195.479 58.833 195.386 58.8414 195.296 58.8678C195.207 58.8943 195.124 58.9381 195.052 58.9969C194.98 59.0556 194.92 59.1281 194.876 59.2101C194.832 59.2921 194.805 59.3821 194.796 59.4747L194.597 61.2797C194.582 61.375 194.586 61.4724 194.61 61.5659C194.634 61.6593 194.677 61.7469 194.736 61.823C194.796 61.8992 194.87 61.9624 194.955 62.0086C195.039 62.0549 195.133 62.0833 195.229 62.0919ZM192.359 77.6149L235.354 82.3621C235.54 82.3775 235.724 82.3203 235.869 82.2025C236.014 82.0847 236.107 81.9155 236.13 81.7303L236.292 79.5102C236.308 79.3262 236.25 79.1437 236.132 79.0019C236.014 78.8601 235.844 78.7704 235.661 78.7521L192.702 74.3298C192.609 74.3173 192.514 74.3239 192.424 74.3493C192.334 74.3747 192.25 74.4184 192.177 74.4776C192.104 74.5368 192.044 74.6103 192.001 74.6936C191.958 74.7768 191.932 74.868 191.926 74.9616L191.727 76.7666C191.712 76.8639 191.716 76.9633 191.74 77.059C191.763 77.1546 191.806 77.2446 191.865 77.3236C191.923 77.4026 191.997 77.4691 192.082 77.5191C192.167 77.5691 192.261 77.6017 192.359 77.6149ZM220.896 83.0299L192.016 79.9253C191.923 79.9154 191.83 79.9238 191.74 79.9502C191.651 79.9767 191.568 80.0205 191.496 80.0793C191.424 80.138 191.364 80.2105 191.32 80.2925C191.276 80.3745 191.249 80.4645 191.24 80.5571L191.059 82.3621C191.047 82.455 191.053 82.5496 191.079 82.6399C191.104 82.7302 191.148 82.8143 191.207 82.887C191.266 82.9598 191.34 83.0196 191.423 83.0628C191.506 83.106 191.597 83.1317 191.691 83.1382L220.39 86.2248C220.569 86.2459 220.749 86.1979 220.893 86.0905C221.038 85.983 221.136 85.8244 221.167 85.6472L221.473 83.8422C221.489 83.7509 221.486 83.6575 221.466 83.5672C221.445 83.477 221.407 83.3917 221.353 83.3162C221.299 83.2408 221.231 83.1767 221.153 83.1275C221.075 83.0784 220.987 83.0452 220.896 83.0299ZM200.066 36.2985L230.083 39.7099C230.263 39.7358 230.445 39.6895 230.591 39.5813C230.736 39.4731 230.833 39.3116 230.859 39.1323L231.257 36.9302C231.289 36.7463 231.248 36.5572 231.144 36.4023C231.04 36.2475 230.879 36.1392 230.697 36.0999L200.463 32.8509C200.371 32.841 200.277 32.8494 200.188 32.8758C200.099 32.9023 200.016 32.9461 199.943 33.0049C199.871 33.0636 199.811 33.1361 199.767 33.2181C199.723 33.3001 199.696 33.3901 199.687 33.4827L199.434 35.5043C199.414 35.6932 199.469 35.8824 199.587 36.0311C199.705 36.1798 199.878 36.2758 200.066 36.2985Z" fill="#5669FF"/>
<path d="M186.89 96.9104C187.088 100.899 187.648 110.881 191.546 110.881C195.445 110.881 202.376 101.549 204.055 99.3111C212.632 100.527 221.31 100.878 229.957 100.358C238.729 99.5818 243.711 96.4772 246.112 90.2861C249.595 81.7484 254.018 47.309 251.779 32.1651C250.606 24.2411 246.924 20.1618 239.144 18.0861C218.676 12.6711 186.113 12.2379 181.005 12.6711C172.937 13.3209 167.666 15.1259 164.616 22.3459C160.284 32.7066 157.558 55.6301 157.739 70.5394C157.847 76.2071 157.955 82.6329 161.475 87.3259C165.807 93.0838 175.536 95.0874 186.89 96.9104ZM159.309 70.395C159.183 55.7384 161.854 32.6705 165.879 23.0137C168.695 16.245 174.002 14.4761 181.132 13.9887C194.128 13.1043 224.307 15.7035 238.675 19.6023C245.895 21.5697 249.126 25.1617 250.173 32.4178C252.267 46.8578 247.881 81.6582 244.758 89.7626C242.664 95.4303 238.224 98.21 229.903 99.0764C221.223 99.6387 212.509 99.3243 203.893 98.1378C203.733 98.1249 203.572 98.151 203.424 98.2139C203.276 98.2768 203.146 98.3745 203.044 98.4988C201.402 100.557 194.164 109.618 191.565 109.329C189.994 109.184 188.839 104.365 188.442 96.4411C188.44 96.2986 188.388 96.1612 188.296 96.0525C188.204 95.9438 188.077 95.8706 187.936 95.8455C170.139 92.7589 165.627 90.3222 162.666 86.3331C159.49 82.0553 159.399 75.81 159.309 70.395ZM154.327 166.511C157.373 166.838 160.448 166.262 163.169 164.856C165.891 163.45 168.139 161.276 169.635 158.602C171.131 155.929 171.808 152.876 171.583 149.821C171.358 146.766 170.241 143.844 168.369 141.419C166.498 138.994 163.955 137.172 161.057 136.18C158.159 135.188 155.033 135.069 152.068 135.839C149.103 136.608 146.429 138.232 144.379 140.508C142.329 142.784 140.993 145.613 140.537 148.642C140.269 150.721 140.412 152.832 140.96 154.855C141.508 156.879 142.449 158.774 143.73 160.434C145.011 162.093 146.606 163.484 148.424 164.527C150.242 165.57 152.248 166.244 154.327 166.511Z" fill="#5669FF"/>
<path d="M179.471 44.4391C177.454 44.4391 175.482 45.0372 173.805 46.1578C172.128 47.2784 170.821 48.8711 170.049 50.7346C169.277 52.5981 169.075 54.6486 169.469 56.6269C169.862 58.6052 170.833 60.4223 172.26 61.8486C173.686 63.2748 175.503 64.2461 177.481 64.6396C179.46 65.0331 181.51 64.8312 183.374 64.0593C185.237 63.2874 186.83 61.9803 187.95 60.3032C189.071 58.6261 189.669 56.6544 189.669 54.6373C189.669 51.9326 188.595 49.3386 186.682 47.4261C184.77 45.5135 182.176 44.4391 179.471 44.4391ZM180.067 60.4133C179.711 60.0714 179.253 59.8574 178.762 59.8051C178.272 59.7529 177.778 59.8652 177.359 60.1245C177.152 60.2789 176.893 60.3463 176.637 60.3126C176.38 60.2789 176.148 60.1467 175.987 59.944C174.706 58.2834 179.399 56.5867 181.529 59.1137C181.614 59.2097 181.68 59.3216 181.722 59.4429C181.764 59.5643 181.782 59.6927 181.774 59.821C181.766 59.9492 181.734 60.0747 181.678 60.1902C181.622 60.3058 181.543 60.4092 181.447 60.4946C181.351 60.5799 181.24 60.6455 181.118 60.6876C180.997 60.7297 180.868 60.7475 180.74 60.7399C180.612 60.7324 180.486 60.6997 180.371 60.6436C180.255 60.5876 180.152 60.5093 180.067 60.4133ZM182.774 56.9116C181.794 56.0629 180.58 55.5297 179.292 55.3815C178.004 55.2334 176.701 55.4773 175.554 56.0813C175.436 56.1406 175.307 56.1759 175.174 56.1853C175.042 56.1947 174.909 56.178 174.784 56.1361C174.658 56.0942 174.542 56.0279 174.442 55.9411C174.342 55.8543 174.26 55.7486 174.2 55.6301C174.141 55.5116 174.106 55.3825 174.096 55.2504C174.087 55.1182 174.104 54.9855 174.146 54.8598C174.188 54.734 174.254 54.6178 174.341 54.5177C174.427 54.4176 174.533 54.3356 174.652 54.2763C176.141 53.4548 177.85 53.1193 179.539 53.3167C181.228 53.5142 182.814 54.2346 184.074 55.3774C184.277 55.5497 184.404 55.7958 184.426 56.0615C184.448 56.3273 184.363 56.5909 184.191 56.7943C184.019 56.9978 183.773 57.1244 183.507 57.1464C183.241 57.1684 182.978 57.084 182.774 56.9116ZM185.157 53.3016C183.714 51.9313 181.881 51.0438 179.911 50.7624C177.941 50.4811 175.933 50.8197 174.164 51.7313C173.947 51.8274 173.702 51.8407 173.475 51.7686C173.248 51.6965 173.056 51.544 172.934 51.3399C172.812 51.1357 172.769 50.894 172.812 50.6603C172.856 50.4265 172.984 50.2168 173.172 50.0707C175.298 48.9764 177.71 48.5626 180.08 48.8855C182.45 49.2084 184.664 50.2523 186.42 51.8757C186.577 52.0524 186.664 52.28 186.666 52.5162C186.667 52.7525 186.583 52.9812 186.429 53.16C186.274 53.3387 186.06 53.4552 185.826 53.4879C185.592 53.5206 185.354 53.4673 185.157 53.3377V53.3016ZM177.341 76.2793L180.049 75.1241L177.828 72.7415L177.341 76.2793ZM176.439 82.8495L179.886 80.5391L177.07 78.2648L176.439 82.8495Z" fill="#5669FF"/>
<path d="M177.449 67.3085C175.436 67.3227 173.471 67.9329 171.803 69.0622C170.136 70.1914 168.84 71.7891 168.079 73.6538C167.318 75.5185 167.127 77.5667 167.528 79.5402C167.93 81.5137 168.907 83.3241 170.336 84.7431C171.765 86.1621 173.582 87.1263 175.558 87.514C177.535 87.9016 179.582 87.6955 181.441 86.9216C183.3 86.1476 184.889 84.8405 186.006 83.165C187.123 81.4895 187.72 79.5206 187.72 77.5067C187.722 76.1607 187.458 74.8275 186.942 73.5844C186.425 72.3413 185.668 71.2128 184.713 70.2644C183.758 69.316 182.624 68.5664 181.377 68.059C180.13 67.5516 178.795 67.2965 177.449 67.3085ZM181.89 75.5212C181.691 76.4779 180.933 76.5862 178.785 77.4887L181.222 79.42C181.513 79.6597 181.698 80.0052 181.735 80.3808C181.772 80.7563 181.659 81.1313 181.42 81.4236C180.025 82.5534 178.54 83.5676 176.98 84.456C176.744 84.6095 176.468 84.6922 176.186 84.6944C175.904 84.6966 175.627 84.6182 175.388 84.4684C175.149 84.3186 174.958 84.1036 174.837 83.8488C174.716 83.5939 174.671 83.3099 174.706 83.03L175.265 78.9507L172.143 80.2684C172.024 80.3181 171.897 80.3441 171.768 80.3447C171.64 80.3453 171.513 80.3207 171.394 80.272C171.275 80.2234 171.166 80.1519 171.075 80.0614C170.984 79.971 170.911 79.8634 170.861 79.7449C170.811 79.6264 170.785 79.4992 170.785 79.3707C170.784 79.2421 170.809 79.1147 170.857 78.9957C170.906 78.8767 170.978 78.7685 171.068 78.6771C171.159 78.5858 171.266 78.5131 171.385 78.4634L174.995 76.9111L171.655 74.2036C171.489 74.0318 171.391 73.8048 171.381 73.5657C171.371 73.3266 171.449 73.0922 171.601 72.9071C171.753 72.7219 171.967 72.5991 172.203 72.5619C172.44 72.5247 172.682 72.5758 172.883 72.7054L175.771 75.0339L176.312 71.1892C176.33 71.0512 176.375 70.9181 176.445 70.7977C176.515 70.6772 176.608 70.5719 176.718 70.4879C176.829 70.4039 176.956 70.3428 177.091 70.3083C177.226 70.2737 177.366 70.2664 177.504 70.2867C178.045 70.2867 177.901 70.2867 181.493 74.2036C181.665 74.3718 181.791 74.5809 181.861 74.8113C181.93 75.0417 181.94 75.2859 181.89 75.5212ZM182.305 20.0175C180.627 20.0174 178.975 20.4312 177.496 21.2222C176.016 22.0132 174.755 23.157 173.823 24.5523C172.892 25.9475 172.318 27.551 172.155 29.2207C171.991 30.8904 172.242 32.5746 172.885 34.1242C173.528 35.6738 174.543 37.0408 175.841 38.1041C177.139 39.1674 178.679 39.8942 180.324 40.2199C181.97 40.5456 183.671 40.4603 185.276 39.9715C186.881 39.4827 188.34 38.6055 189.525 37.4177C190.948 35.9904 191.917 34.1732 192.309 32.1957C192.7 30.2182 192.496 28.1691 191.724 26.3072C190.951 24.4453 189.644 22.854 187.968 21.7346C186.291 20.6151 184.321 20.0176 182.305 20.0175ZM186.113 26.1906L187.738 24.909C187.916 24.8011 188.128 24.7626 188.333 24.801C188.538 24.8394 188.722 24.952 188.849 25.1172C188.976 25.2824 189.038 25.4887 189.023 25.6967C189.008 25.9046 188.917 26.0997 188.767 26.2447C186.962 27.6165 186.962 27.6887 186.637 27.6887C186.456 27.704 186.276 27.6599 186.123 27.563C185.969 27.466 185.852 27.3217 185.789 27.1519C185.725 26.9821 185.719 26.7963 185.771 26.6227C185.823 26.4491 185.931 26.2973 186.077 26.1906H186.113ZM182.395 22.5806C182.438 22.3727 182.558 22.1885 182.73 22.0644C182.902 21.9402 183.115 21.8852 183.325 21.9102C183.536 21.9351 183.73 22.0382 183.869 22.1991C184.007 22.3599 184.08 22.5669 184.074 22.7791L183.821 24.8368C183.779 25.0474 183.658 25.234 183.484 25.3592C183.309 25.4844 183.094 25.5387 182.881 25.5112C182.668 25.4837 182.473 25.3765 182.336 25.2111C182.199 25.0458 182.13 24.8346 182.142 24.6202L182.395 22.5806ZM174.724 30.0713C174.556 30.0513 174.398 29.9819 174.271 29.8717C174.143 29.7615 174.051 29.6157 174.006 29.4529C173.961 29.2902 173.966 29.1178 174.02 28.9578C174.074 28.7979 174.175 28.6577 174.309 28.5551C174.67 28.2663 174.832 28.3746 176.98 28.6454C177.182 28.6853 177.362 28.7973 177.488 28.9605C177.613 29.1236 177.675 29.3268 177.662 29.5322C177.649 29.7375 177.561 29.9311 177.416 30.0767C177.27 30.2224 177.077 30.3103 176.872 30.324L174.724 30.0713ZM178.46 34.295C176.655 35.6849 176.655 35.739 176.33 35.739C176.21 35.7427 176.09 35.7201 175.98 35.673C175.869 35.6258 175.77 35.5551 175.689 35.4658C175.608 35.3766 175.548 35.2708 175.512 35.1559C175.477 35.041 175.466 34.9197 175.482 34.8004C175.482 34.3311 175.717 34.295 177.431 32.9954C177.605 32.9105 177.803 32.8875 177.992 32.9304C178.18 32.9733 178.349 33.0794 178.469 33.2311C178.589 33.3828 178.654 33.5711 178.652 33.7646C178.65 33.9581 178.583 34.1453 178.46 34.295ZM178.244 26.4613C176.818 24.6563 176.745 24.6563 176.8 24.2231C176.823 24.0598 176.893 23.9068 177.002 23.7829C177.111 23.659 177.254 23.5696 177.413 23.5255C177.572 23.4814 177.74 23.4847 177.897 23.5349C178.055 23.585 178.194 23.6799 178.298 23.808L179.579 25.4325C179.655 25.6089 179.668 25.8058 179.617 25.9909C179.567 26.176 179.454 26.3383 179.299 26.4515C179.144 26.5646 178.956 26.6218 178.764 26.6138C178.572 26.6057 178.389 26.5329 178.244 26.4072V26.4613ZM182.179 37.8509C182.159 38.0185 182.089 38.1763 181.979 38.3042C181.869 38.4321 181.723 38.5242 181.56 38.5688C181.397 38.6134 181.225 38.6084 181.065 38.5544C180.905 38.5005 180.765 38.4001 180.662 38.266C180.392 37.905 180.482 37.7426 180.662 35.5946C180.669 35.4784 180.7 35.3649 180.752 35.261C180.805 35.1572 180.878 35.0653 180.968 34.991C181.058 34.9167 181.161 34.8617 181.273 34.8293C181.385 34.797 181.502 34.7879 181.618 34.8028C181.733 34.8177 181.844 34.8562 181.944 34.9159C182.044 34.9756 182.131 35.0552 182.199 35.1498C182.266 35.2444 182.314 35.3519 182.339 35.4657C182.363 35.5795 182.364 35.6971 182.341 35.8112L182.179 37.8509ZM182.179 33.5369C181.516 33.5357 180.869 33.3328 180.324 32.9553C179.779 32.5778 179.362 32.0434 179.128 31.4233C178.894 30.8031 178.854 30.1264 179.014 29.4831C179.173 28.8397 179.525 28.2601 180.022 27.8213C180.519 27.3825 181.137 27.1051 181.795 27.0261C182.453 26.9471 183.12 27.0701 183.707 27.3789C184.293 27.6877 184.772 28.1676 185.079 28.7548C185.387 29.3421 185.508 30.009 185.428 30.667C185.318 31.4274 184.946 32.1255 184.376 32.6399C183.805 33.1543 183.072 33.4526 182.305 33.4828L182.179 33.5369ZM186.15 36.7318C184.724 34.9268 184.651 34.9268 184.706 34.4936C184.721 34.3253 184.786 34.1656 184.895 34.0358C185.003 33.906 185.148 33.8122 185.311 33.7671C185.474 33.722 185.646 33.7276 185.806 33.7832C185.965 33.8389 186.104 33.9418 186.204 34.0784L187.485 35.7029C187.535 35.8666 187.534 36.0414 187.482 36.2044C187.43 36.3674 187.331 36.511 187.196 36.6164C187.061 36.7218 186.898 36.784 186.727 36.7949C186.557 36.8058 186.387 36.7649 186.24 36.6776L186.15 36.7318ZM189.669 32.0388L187.503 31.7861C187.34 31.7627 187.187 31.6923 187.063 31.5834C186.939 31.4744 186.85 31.3318 186.806 31.1728C186.762 31.0138 186.765 30.8454 186.815 30.6882C186.865 30.5311 186.96 30.392 187.088 30.2879C187.467 29.9811 187.63 30.0894 189.76 30.2879C189.985 30.2879 190.2 30.3773 190.359 30.5364C190.518 30.6955 190.608 30.9113 190.608 31.1363C190.608 31.3613 190.518 31.577 190.359 31.7361C190.2 31.8952 189.985 31.9846 189.76 31.9846L189.669 32.0388ZM347.607 277.465C354.285 271.201 352.733 261.725 349.267 253.35C355.801 245.245 346.271 209.2 309.449 186.15C280.389 167.991 254.956 172.359 230.534 166.89C228.278 157.865 221.347 136.783 212.069 137.433C212.864 129.689 209.055 126.079 200.319 120.989C189.344 114.581 163.786 108.174 153.75 106.676C136.873 104.149 131.368 110.105 122.74 124.545C119.401 122.884 115.141 120.773 104.888 116.549C103.499 110.43 101.278 106.676 97.867 104.726C96.4591 103.282 83.9865 94.8167 77.1275 90.4125C55.3434 76.5564 32.6309 64.2171 9.15123 53.4822C9.11106 53.4646 9.06721 53.457 9.02346 53.4601C8.97972 53.4632 8.93738 53.4769 8.90009 53.5C8.8628 53.523 8.83167 53.5548 8.80939 53.5926C8.78711 53.6304 8.77434 53.673 8.77218 53.7168C8.77218 54.4749 8.77218 54.7276 8.91658 54.8359C34.8725 67.7778 70.1061 86.5678 93.7516 103.571C83.5714 102.019 72.0916 114.184 67.4166 119.653C31.6776 161.981 22.2375 238.946 43.3199 249.09C31.864 249.213 20.4113 248.641 9.02488 247.375C8.98642 247.37 8.94729 247.373 8.91015 247.385C8.87302 247.396 8.83873 247.415 8.80963 247.441C8.78053 247.466 8.75729 247.498 8.74149 247.533C8.72568 247.569 8.71768 247.607 8.71803 247.646C8.71803 248.296 8.71803 248.549 8.95268 248.585C21.3584 250.018 33.8513 250.555 46.3342 250.191C50.2511 250.859 54.4206 249.415 59.4746 245.624C60.2869 245.733 64.8896 246.346 66.3697 246.509C57.7972 279.683 55.5015 314.167 59.601 348.185C59.601 348.491 59.8898 348.419 60.7923 348.419C62.4348 348.419 53.0669 310.514 67.0556 251.274C73.5717 223.694 84.0046 198.929 94.9429 185.193C97.7667 181.316 101.385 178.085 105.556 175.717C118.985 169.038 124.635 191.348 125.772 206.185C128.588 241.762 116.928 282.519 117.307 283.927C117.326 284.002 117.359 284.073 117.406 284.135C117.453 284.197 117.512 284.249 117.579 284.288C117.647 284.327 117.721 284.351 117.799 284.361C117.876 284.37 117.954 284.363 118.029 284.342C146.024 276.616 174.688 254.667 192.846 227.033C192.94 226.895 192.984 226.73 192.972 226.564C192.178 203.099 194.001 141.729 211.781 138.931C220.336 137.505 226.997 159.436 229.109 167.919C234.524 190.969 234.65 221.022 229.704 257.213C229.596 258.007 231.004 257.898 231.13 257.213C233.883 240.109 235.182 222.804 235.011 205.481C266.887 218.856 257.248 280.641 254.974 292.933C254.83 293.692 256.129 293.728 256.274 292.933C257.793 285.499 258.836 277.975 259.396 270.407C273.836 286.652 270.533 319.647 264.414 340.333C264.234 340.928 265.227 341.199 265.425 340.604C267.198 334.908 268.561 329.093 269.504 323.203C273.891 330.55 275.082 339.575 275.353 348.13C275.357 348.199 275.388 348.263 275.438 348.31C275.488 348.357 275.555 348.383 275.623 348.383H276.273C276.345 348.383 276.414 348.355 276.465 348.304C276.515 348.253 276.544 348.184 276.544 348.112C276.635 341.107 275.461 334.142 273.078 327.553C279.414 332.03 284.703 338.492 290.551 339.954C299.81 342.192 300.244 330.243 297.374 321.146C293.348 307.229 283.493 293.764 274.089 282.825C280.572 284.987 286.748 287.978 292.464 291.724C305.045 299.63 313.023 308.926 319.485 316.362C324.9 322.68 333.022 332.806 340.603 330.225C341.724 329.81 342.747 329.17 343.61 328.344C344.473 327.518 345.158 326.524 345.621 325.423C348.401 319.756 347.101 311.399 345.152 305.424C352.895 300.099 351.524 287.555 347.607 277.465ZM108.661 152.541C104.762 161.566 103.715 168.786 105.556 174.201C101.838 175.771 97.8489 179.164 93.6974 184.291C78.8423 202.774 69.8895 233.152 66.6224 245.661L37.5078 241.004C23.4649 211.059 48.8973 129.545 81.4234 108.481L122.126 125.52C117.099 134.248 112.603 143.271 108.661 152.541ZM124.419 149.219C124.225 149.069 124.071 148.874 123.97 148.651C123.869 148.427 123.825 148.182 123.841 147.938C124.123 145.387 124.837 142.903 125.953 140.591C126.045 140.393 126.184 140.219 126.356 140.084C126.529 139.95 126.731 139.857 126.946 139.815C128.831 139.513 130.741 139.398 132.649 139.472C133.714 139.472 133.317 138.173 136.62 134.491C137.252 133.787 136.476 133.552 135.032 128.263C134.958 127.984 134.972 127.688 135.072 127.417C135.173 127.146 135.354 126.912 135.591 126.747C137.696 125.33 139.891 124.052 142.162 122.921C142.365 122.815 142.591 122.759 142.82 122.759C143.05 122.759 143.276 122.815 143.479 122.921C147.884 125.538 148.172 126.946 149.147 126.657C151.318 126.054 153.555 125.727 155.807 125.682C156.963 125.682 156.403 124.328 159.417 119.996C159.548 119.819 159.72 119.675 159.918 119.577C160.116 119.48 160.334 119.432 160.555 119.437C163.14 119.54 165.692 120.052 168.118 120.953C168.337 121.03 168.533 121.161 168.688 121.335C168.843 121.509 168.951 121.719 169.002 121.946C169.369 124.159 169.55 126.399 169.544 128.642C169.544 129.653 170.825 129.346 174.471 132.668C175.374 133.516 176.421 131.747 181.962 131.007C182.181 130.975 182.404 130.998 182.612 131.073C182.82 131.149 183.006 131.275 183.153 131.44C184.852 133.327 186.23 135.479 187.233 137.812C187.322 138.024 187.359 138.254 187.34 138.484C187.321 138.713 187.247 138.935 187.124 139.129C185.704 141.099 184.116 142.941 182.377 144.635C181.691 145.339 182.612 145.808 182.864 150.194C182.866 150.361 182.916 150.523 183.009 150.661C183.102 150.799 183.234 150.906 183.388 150.97C185.671 151.823 187.836 152.964 189.832 154.364C190.001 154.493 190.138 154.659 190.232 154.85C190.326 155.041 190.375 155.252 190.373 155.465C190.283 157.949 189.739 160.396 188.767 162.685C188.681 162.895 188.546 163.082 188.373 163.229C188.201 163.377 187.995 163.481 187.774 163.533C185.129 164.019 182.449 164.29 179.76 164.345C178.893 164.345 179.164 165.266 176.439 168.28C175.644 169.183 177.359 170.085 178.244 176.006C178.269 176.217 178.245 176.432 178.172 176.632C178.1 176.833 177.983 177.014 177.828 177.161C175.971 178.857 173.817 180.197 171.475 181.114C171.273 181.194 171.056 181.226 170.839 181.208C170.623 181.189 170.414 181.119 170.229 181.005C168.215 179.647 166.33 178.106 164.598 176.403C163.876 175.717 163.28 176.764 158.461 177.034C157.233 177.034 157.901 178.731 154.382 183.406C154.248 183.575 154.078 183.711 153.884 183.805C153.69 183.899 153.478 183.948 153.262 183.948C150.766 183.789 148.32 183.177 146.042 182.143C145.84 182.062 145.66 181.935 145.515 181.772C145.371 181.609 145.267 181.415 145.212 181.204C144.755 179.004 144.484 176.77 144.4 174.525C144.39 174.377 144.343 174.234 144.265 174.108C144.186 173.982 144.077 173.877 143.949 173.803C139.039 171.132 138.877 169.435 137.776 169.941C135.971 170.893 134.046 171.597 132.054 172.035C131.82 172.083 131.577 172.07 131.349 171.997C131.122 171.925 130.917 171.795 130.754 171.619C129.136 169.815 127.852 167.737 126.964 165.482C126.881 165.274 126.85 165.049 126.872 164.826C126.894 164.603 126.968 164.389 127.09 164.201C130.086 159.869 131.747 159.706 131.404 158.605C129.834 153.515 130.88 152.288 129.779 151.855C127.899 151.18 126.101 150.296 124.419 149.219ZM118.895 282.789C120.267 277.266 121.368 271.959 122.379 266.887C129.085 269.479 136.078 271.254 143.209 272.176C135.603 276.771 127.429 280.351 118.895 282.825V282.789ZM154.634 261.581C145.161 261.18 135.803 259.355 126.873 256.166C125.79 255.787 126.224 253.837 127.379 254.09C138.371 256.527 141.927 257.7 154.833 259.505C155.094 259.554 155.328 259.698 155.488 259.91C155.648 260.123 155.723 260.387 155.698 260.651C155.673 260.916 155.55 261.162 155.353 261.34C155.156 261.519 154.9 261.618 154.634 261.617V261.581ZM157.468 246.816C157.45 247.073 157.336 247.314 157.149 247.491C156.962 247.668 156.715 247.768 156.457 247.772C146.816 246.981 137.309 244.998 128.155 241.87C127.91 241.769 127.713 241.578 127.605 241.336C127.498 241.094 127.488 240.82 127.577 240.57C127.848 239.722 128.01 239.776 130.917 240.48C138.137 242.285 147.017 244.09 154.111 245.3C157.396 245.859 157.594 245.895 157.468 246.852V246.816ZM158.894 233.91C151.169 233.495 136.115 230.535 129.021 227.484C128.01 227.051 128.444 225.156 129.599 225.445C139.31 228.183 149.185 230.306 159.165 231.798C159.45 231.841 159.706 231.996 159.877 232.228C160.048 232.459 160.119 232.75 160.076 233.035C160.033 233.319 159.879 233.575 159.647 233.746C159.415 233.917 159.125 233.989 158.84 233.946L158.894 233.91ZM129.671 208.784C140.274 212.122 151.047 214.894 161.944 217.087C162.215 217.129 162.459 217.274 162.624 217.493C162.788 217.712 162.861 217.986 162.825 218.258C162.79 218.529 162.649 218.776 162.434 218.945C162.219 219.115 161.946 219.193 161.674 219.163C150.502 217.657 139.547 214.834 129.039 210.752C127.974 210.319 128.552 208.459 129.671 208.784ZM191.33 226.419C182.53 239.599 171.705 251.307 159.255 261.111C159.255 246.527 164.417 228.459 174.507 207.376C174.525 207.334 174.531 207.288 174.527 207.242C174.523 207.196 174.508 207.152 174.483 207.113C174.459 207.074 174.425 207.041 174.385 207.018C174.345 206.995 174.301 206.982 174.255 206.979C171.944 206.979 169.002 208.514 155.41 204.651C145.826 201.907 138.461 200.878 128.696 196.456C128.696 196.456 127.812 192.846 127.577 192.016C133.962 194.892 140.612 197.141 147.432 198.731C164.381 203.243 175.771 207.954 187.142 194.38C196.745 182.774 189.796 177.865 191.33 226.419ZM344.755 304.269C337.788 283.8 316.94 263.331 302.139 255.877C302.072 255.841 301.998 255.819 301.923 255.813C301.847 255.808 301.771 255.818 301.699 255.843C301.628 255.869 301.563 255.909 301.508 255.962C301.453 256.014 301.41 256.077 301.381 256.148C300.695 257.519 303.565 256.617 315.207 266.328C322.932 272.952 341.343 290.641 345.242 311.453C346.65 318.673 345.332 322.951 344.412 324.846C344.032 325.796 343.458 326.658 342.728 327.376C341.998 328.093 341.127 328.652 340.17 329.015C333.383 331.326 325.532 321.254 320.839 315.731C314.449 308.186 306.399 298.8 293.403 290.695C282.176 283.674 272.97 281.039 272.266 281.851C271.562 282.663 290.316 301.977 296.056 321.705C298.601 329.557 299.016 340.748 290.858 338.708C284.666 337.12 278.114 328.817 272.32 325.748C271.617 324.233 270.79 322.778 269.847 321.398C272.32 303.998 272.013 281.075 259.667 268.548C260.913 248.242 259.36 212.99 235.047 203.821C234.888 191.843 233.485 179.914 230.859 168.226C255.389 173.948 280.497 170.031 308.655 187.431C326.885 198.712 347.571 221.113 349.863 243.603C350.025 245.101 350.35 249.974 348.78 252.213C342.86 239.126 329.683 225.282 319.611 218.297C319.07 217.918 318.438 218.784 318.961 219.181C331.831 228.567 354.339 252.989 350.657 269.631C350.161 272.177 348.902 274.513 347.047 276.327C340.441 260.082 325.983 243.837 314.07 234.686C313.546 234.289 312.842 235.065 313.33 235.516C321.569 242.071 328.923 249.668 335.206 258.115C351.506 280.298 352.336 297.987 344.755 304.269Z" fill="#5669FF"/>
</svg>
