<svg width="24" height="21" viewBox="0 0 24 21" fill="none" xmlns="http://www.w3.org/2000/svg">
<path d="M11 17C11 17.5523 11.4477 18 12 18C12.5523 18 13 17.5523 13 17H11ZM12 12H13C13 11.7348 12.8946 11.4804 12.7071 11.2929L12 12ZM8.5 8.5L7.8415 7.74742C7.6332 7.92968 7.50976 8.19011 7.50055 8.46672C7.49134 8.74334 7.59719 9.0114 7.79289 9.20711L8.5 8.5ZM12.5 5L13.2593 4.34921C13.0855 4.1465 12.8379 4.02169 12.5716 4.00257C12.3053 3.98345 12.0424 4.07161 11.8415 4.24742L12.5 5ZM18.5 10C19.0523 10 19.5 9.55229 19.5 9C19.5 8.44772 19.0523 8 18.5 8V10ZM8 16C8 17.6569 6.65685 19 5 19V21C7.76142 21 10 18.7614 10 16H8ZM5 19C3.34315 19 2 17.6569 2 16H0C0 18.7614 2.23858 21 5 21V19ZM2 16C2 14.3431 3.34315 13 5 13V11C2.23858 11 0 13.2386 0 16H2ZM5 13C6.65685 13 8 14.3431 8 16H10C10 13.2386 7.76142 11 5 11V13ZM13 17V12H11V17H13ZM12.7071 11.2929L9.20711 7.79289L7.79289 9.20711L11.2929 12.7071L12.7071 11.2929ZM9.1585 9.25258L13.1585 5.75258L11.8415 4.24742L7.8415 7.74742L9.1585 9.25258ZM11.7407 5.65079C12.2544 6.25009 13.2032 7.3069 14.3529 8.22044C15.4669 9.10557 16.9452 10 18.5 10V8C17.6548 8 16.6331 7.47777 15.5971 6.65456C14.5968 5.85976 13.7456 4.91657 13.2593 4.34921L11.7407 5.65079ZM22 16C22 17.6569 20.6569 19 19 19V21C21.7614 21 24 18.7614 24 16H22ZM19 19C17.3431 19 16 17.6569 16 16H14C14 18.7614 16.2386 21 19 21V19ZM16 16C16 14.3431 17.3431 13 19 13V11C16.2386 11 14 13.2386 14 16H16ZM19 13C20.6569 13 22 14.3431 22 16H24C24 13.2386 21.7614 11 19 11V13ZM16 2V4C17.1046 4 18 3.10457 18 2H16ZM16 2H14C14 3.10457 14.8954 4 16 4V2ZM16 2V0C14.8954 0 14 0.89543 14 2H16ZM16 2H18C18 0.89543 17.1046 0 16 0V2Z" fill="#F2FEFF"/>
</svg>
